<svg xmlns="http://www.w3.org/2000/svg" viewBox="0 0 100 100"><path d="M49.12 8.32a8.2 8.2 0 0 1 3.54.4c2.33.83 3.45 2.3 4.48 4.45.43.12.87.19 1.3.3 1.37.33 2.7.93 3.75 1.87.72.65 1.38 1.42 1.41 2.43.04.95-.57 1.68-1.18 2.33.7.4 1.9 1.57 2.48 2.16q.23.23.45.48l.43.48.4.5q.21.26.4.53.2.26.38.53l.36.54.34.56.32.57.3.58.27.58.26.6.24.6.22.62.2.63.16.62.16.64c.43 1.9.57 3.8.6 5.74 0 .3-.1 1.32.07 1.5.57-.13 1.27.08 1.78.35 1.07.57 1.75 1.77 2.08 2.89.8 2.62.18 6.38-1.12 8.75-1.17 2.14-2.26 3.21-4.6 3.9.05.9-.03 1.83-.11 2.73q-.1 1.15-.28 2.3-.18 1.13-.42 2.26-.25 1.13-.56 2.24-.3 1.1-.69 2.2a22.9 22.9 0 0 1 5.34 3.34c3.7 3.24 6.4 7.95 6.71 12.9.1 1.68-.14 3.24-1.29 4.52a5.44 5.44 0 0 1-2.98 1.7c-.89.18-1.81.13-2.72.13h-12c-1.92 0-3.86-.06-5.77.05-.67.69-2.47 2.42-3.34 2.66-.1.05-.2.05-.3.05-.84 0-3.33-2.1-3.93-2.72-.58-.07-1.2-.04-1.79-.04H31.5c-1.71 0-3.62.1-5.31-.05a5.4 5.4 0 0 1-3.6-1.97c-1.13-1.34-1.27-2.99-1.12-4.66.37-4.1 2.23-7.86 4.97-10.9.33-.36.65-.74 1.01-1.09.72-.68 1.6-1.32 2.4-1.9q1.04-.72 2.15-1.3c.4-.22 1.06-.44 1.39-.72-.03-.35-.23-.79-.34-1.14a57.6 57.6 0 0 1-.65-2.36q-.25-1.01-.43-2.04-.19-1.02-.32-2.05-.12-1.03-.2-2.07-.06-1.04-.07-2.08a6.2 6.2 0 0 1-3.07-1.77c-2.1-2.25-3.02-5.81-2.91-8.83.06-1.62.48-3.26 1.72-4.4a3.3 3.3 0 0 1 2.57-.86c-.17-1.36-.06-2.87.07-4.23.38-4.16 1.79-8.23 4.63-11.36.99-1.1 2.1-1.99 3.22-2.93a3.6 3.6 0 0 1-1.17-1.88c-.43-2.31 2.92-4.01 4.68-4.59.5-.15 1.36-.15 1.76-.45.1-.09.71-1.36.9-1.63 1.38-1.98 3.02-2.77 5.34-3.2Zm-11.1 51.96c.06-.7.1-1.4.23-2.08l.1-.47.12-.47.14-.46.16-.45.18-.45.2-.44q.1-.22.22-.43l.23-.42.25-.41.27-.4.29-.39.3-.37.32-.37.33-.34q.17-.18.35-.34l.36-.32c1.3-1.1 3.77-2.23 5.51-2.08 1.07.1 1.47.87 2.77.72.27-.03.53-.08.77-.2 1.2-.7 1.8-.62 3.1-.28a9.55 9.55 0 0 1 6.17 4.73 13.62 13.62 0 0 1 1.66 5.77c.38-.52.83-.99 1.2-1.5.89-1.2 1.67-2.74 2.06-4.18.2-.7.38-2.16.67-2.7.15-.3.48-.4.8-.45.3-.04.63-.02.94-.06a3.23 3.23 0 0 0 2.16-1.31 9.6 9.6 0 0 0 1.71-6.77c-.07-.56-.24-1.16-.71-1.51-.36-.28-.82-.27-1.25-.2-.67.11-1.47.56-2.08.1-.23-.17-.32-.43-.44-.68.23-1.81.21-3.57.06-5.39-.3-3.58-1.12-7.04-3.4-9.93-2.77-3.53-7.37-5.78-11.8-6.3-.6-.07-2.4-.24-2.92-.1-.93.08-1.87.15-2.78.34a17.84 17.84 0 0 0-9.75 5.68c-3.12 3.69-3.79 8.5-3.73 13.15.01 1.01.3 2.22-.14 3.15l-.06.04a1.3 1.3 0 0 1-1.12.21c-.65-.14-1.5-.58-2.13-.18-.48.3-.77.8-.88 1.36-.42 2.15.29 5 1.52 6.8a3.4 3.4 0 0 0 2.11 1.52c.66.11 1.26-.02 1.87.34.41.67.39 1.56.6 2.31.68 2.5 1.85 4.24 3.46 6.2Zm3.67 2.79c.98.52 2.45 1.03 3.56 1.17.86-1.39 2-2.7 3.67-3.08a5.04 5.04 0 0 1 1.85-.06c.2.02.43.1.63.08l.1-.02.09.12h.1c.83.1 2.04 1.44 2.53 2.1.2.28.4.61.66.85.9-.02 2.69-.8 3.52-1.2l-.02-.05c-.22-.56-.15-1.25-.28-1.85-.5-2.32-1.83-4.64-4.05-5.68a9.75 9.75 0 0 0-4.4-.78c-.29 0-.64-.03-.92.04-2.08.26-3.78.93-5.1 2.64a10.12 10.12 0 0 0-1.94 5.72Z"/><path d="M43.82 34.93c.33-.07.8-.02 1.11.1.45.17.8.54 1 .98.2.46.25 1 .06 1.47-.18.43-.55.74-.98.9-.68.25-1.71.2-2.45.28-1.37.14-2.82.46-4.09.99-.39.17-.77.3-1.18.4-.15-.04-.32-.08-.46-.18a1.15 1.15 0 0 1-.41-.77c-.08-.62.3-1.63.7-2.12 1.37-1.75 4.64-1.82 6.7-2.05Zm12.12 0c1.2.05 3.7.35 4.82.69.97.29 1.86.85 2.34 1.76.36.68.54 1.46.3 2.2-.11.14-.24.27-.4.35-.4.18-.8 0-1.19-.13-.94-.45-1.96-.76-2.98-.95q-.98-.17-1.97-.24c-.5-.04-1.07-.03-1.57-.15a2.18 2.18 0 0 1-.8-.35 1.12 1.12 0 0 1-.49-.76 1.46 1.46 0 0 0-.04-.23c-.03-.1-.09-.23-.1-.34 0-.33.38-1 .59-1.24.4-.47.9-.58 1.49-.6Zm1.59 6.12h.24l.12.01.12.02.12.02.11.03.12.03.11.04.12.04.1.05.12.06.1.05.1.07.1.07.1.07.09.08.09.08.08.1.08.08.07.1.07.1.07.1.06.1.05.1.05.12.05.11.04.11.03.12.03.12.02.12.02.12v.12l.01.12v.24l-.02.12-.02.12-.02.12-.03.11-.04.12-.04.11-.05.11-.05.11-.05.1-.07.11-.06.1-.08.1-.07.1-.08.08-.09.09-.09.08-.1.07-.09.08-.1.06-.1.07-.1.05-.12.06-.1.04-.12.04-.12.04-.11.03-.12.02-.12.02-.12.02h-.41l-.09-.01-.08-.01-.08-.02-.08-.01-.08-.02-.08-.02-.08-.03-.08-.02-.07-.03-.08-.03-.08-.04-.07-.04-.07-.04-.07-.04-.07-.04-.07-.05-.07-.05-.06-.05-.07-.05-.06-.05-.06-.06-.06-.06-.05-.06-.06-.06-.05-.07-.05-.07-.05-.06-.04-.07-.04-.07-.04-.07-.04-.08-.04-.07-.03-.08-.03-.08-.03-.07-.02-.08-.03-.08-.02-.08-.01-.08-.02-.08-.01-.09-.01-.08v-.08l-.01-.08v-.25l.01-.08.01-.08.01-.09.02-.08.02-.08.02-.08.02-.08.03-.08.03-.07.03-.08.03-.08.04-.07.03-.07.05-.08.04-.07.04-.06.05-.07.05-.07.05-.06.06-.06.05-.06.06-.06.06-.06.07-.05.06-.06.06-.05.07-.05.07-.04.07-.05.07-.04.08-.04.07-.03.07-.04.08-.03.08-.03.08-.02.08-.03.08-.02.08-.02.08-.01.08-.01.08-.01.08-.01h.09Zm-15.38.01h.48l.13.02.12.02.11.03.12.03.12.04.11.05.11.05.11.05.1.06.11.07.1.07.1.08.09.08.08.08.09.1.08.08.07.1.07.1.07.1.06.11.05.11.05.11.04.12.04.11.03.12.03.12.02.12.01.12.01.12v.25l-.01.12-.02.12-.02.12-.03.12-.03.12-.04.11-.04.12-.05.1-.06.12-.06.1-.07.1-.07.1-.07.1-.08.1-.09.08-.09.08-.09.08-.1.08-.1.07-.1.06-.1.06-.12.06-.1.05-.12.04-.12.04-.12.03-.11.02q-.06.02-.13.02l-.12.02h-.48l-.13-.02-.12-.02-.12-.03-.11-.03-.12-.04-.11-.05-.11-.05-.11-.05-.1-.06-.11-.07-.1-.07-.1-.07-.09-.09-.09-.08-.08-.09-.08-.1-.08-.09-.06-.1-.07-.1-.06-.11-.05-.1-.05-.12-.05-.12-.03-.11-.04-.12-.02-.12-.02-.12-.02-.12v-.49l.02-.12.02-.12.03-.12.04-.12.03-.11.05-.12.05-.1.06-.12.06-.1.06-.1.07-.1.08-.1.08-.1.08-.08.1-.09.09-.07.1-.08.1-.07.1-.06.1-.06.11-.06.12-.05.11-.04.12-.04.12-.03.11-.02.13-.02.12-.02Zm10.28 16.19.26-.02c.33 0 .79.03 1.03.29.21.22.3.57.29.87 0 .3-.13.56-.35.76-.89.82-4.84.41-6.1.37a2.35 2.35 0 0 1-1.33-.5 2.32 2.32 0 0 1-.18-1.1c.18-.29.35-.44.63-.63.43-.03.87 0 1.3.02 1.47.03 2.99.14 4.45-.06Z"/></svg>