<svg xmlns="http://www.w3.org/2000/svg" viewBox="0 0 100 100"><path d="M49.35 9.1c.26-.04.55-.02.81-.02a22.12 22.12 0 0 1 15.64 6.45 22.36 22.36 0 0 1 6.08 12.77c.33 2.52.32 5.1.3 7.64h.38c.99-.02 1.88.13 2.61.86 1.2 1.2 1.52 3.18 1.5 4.8 0 .6-.07 1.19-.12 1.77-.24 3.1-.94 7.83-3.37 9.99-.34.3-.73.56-1.16.72-.42.15-1.14.09-1.46.44-.36.38-.46 1.7-.54 2.25-.14.95-.28 1.9-.53 2.82-.35 1.29-.96 2.36-.94 3.73 0 .56 0 1.28.4 1.71.73.79 4.1 2.25 5.21 2.87a25.11 25.11 0 0 1 5.27 3.86c2.8 2.73 4.68 6.49 4.71 10.45a6.26 6.26 0 0 1-1.7 4.54 4.88 4.88 0 0 1-2.68 1.35c-1.11.18-2.3.09-3.42.09h-51.6c-1.24 0-2.51.07-3.75-.03a5.92 5.92 0 0 1-2.38-.63 5.14 5.14 0 0 1-2.48-3.18c-.53-1.82-.3-3.91.22-5.71 1.74-6.15 7.1-9.59 12.49-12.29.66-.33 2.1-.78 2.43-1.47.3-.62.27-1.58.19-2.25-.16-1.25-.78-2.38-1.07-3.6-.2-.85-.33-1.72-.46-2.58-.1-.63-.17-1.29-.37-1.9l-.02-.06c-1.18-.5-1.91-.44-2.9-1.4-2.46-2.34-3.23-8.09-3.3-11.36-.03-1.64.2-3.59 1.4-4.81.87-.9 1.9-.96 3.09-.98-.04-1.91-.06-3.87.09-5.78.41-5.32 2.22-10.26 5.88-14.2 4.03-4.36 9.67-6.62 15.55-6.86Zm1.64 64.57c.8-.07 1.6-.13 2.4-.32 2.99-.71 5.15-2.91 7.05-5.2a35.38 35.38 0 0 0 5.41-8.37c2.84-6.45 3.73-15.26 3.92-22.3a63.8 63.8 0 0 0-.15-7.4c-.5-5.5-2.54-10.37-6.85-13.95a19.37 19.37 0 0 0-11.51-4.47c-.78-.04-1.57-.07-2.34 0-5.05.2-9.82 2.36-13.3 6.02-5.57 5.97-5.68 13.51-5.4 21.22.25 7.15 1.23 15.57 4.43 22.02a34.2 34.2 0 0 0 4.26 6.43 33.48 33.48 0 0 0 3.02 3.35c2.86 2.66 5.28 3.07 9.06 2.97Zm15.51-7.76c-2.47 3.42-5.63 7.63-9.48 9.55-1.24.62-2.59 1-3.95 1.21-4.16.66-8.52.12-12-2.41-2.19-1.6-4.04-3.8-5.67-5.95-.64-.83-1.24-1.84-2-2.56-.09 3.74.67 6.73 3.34 9.53 3.27 3.45 8.03 5.2 12.73 5.32 4.8.12 9.78-1.47 13.28-4.82a11.55 11.55 0 0 0 3.55-6.4c.16-1.16.21-2.3.2-3.47Zm5.2-14.58c1.94-1.84 2.56-6.07 2.63-8.67.03-1.06.08-2.8-.7-3.62-.24-.26-.47-.33-.8-.36-.38.08-.51.22-.71.54a5.57 5.57 0 0 0-.75 1.9c-.41 2.01-.37 4.16-.53 6.21-.1 1.18-.48 3.13-.28 4.22.13.1.23.14.4.12.27-.04.51-.18.74-.34Zm-43 .21c.2.08.43.15.63.07.1-.04.17-.14.2-.24.19-.53-.26-3.53-.32-4.24-.16-1.9-.17-3.85-.5-5.73a6.45 6.45 0 0 0-.7-2.13c-.17-.26-.5-.5-.8-.56-.13-.02-.27 0-.4.02-.67.52-.9 1.3-1 2.1-.32 2.56.5 8 2.1 10.01.24.3.48.5.8.7Z"/><path d="M61.85 34.98a3.4 3.4 0 0 1 1.95.34 5.7 5.7 0 0 1 2.46 3.14c.06.2.08.35-.02.54-.58.42-1.2-.03-1.7-.36-.32-.2-.62-.43-1-.53-1.49-.37-4.38.54-5.96.84-.63.19-1.31.3-1.96.43-.7.13-1.83.33-2.46-.12a1.8 1.8 0 0 1-.72-1.25c-.05-.4 0-.87.27-1.19.17-.2.4-.31.66-.36.65-.13 1.33 0 2-.13 2.16-.41 4.28-1.13 6.48-1.35Zm-24.43 0c.63-.02 1.3.06 1.92.16 1.3.2 2.57.56 3.85.86.8.18 1.71.29 2.46.63.2.09.36.24.49.42.26.38.33.87.23 1.3-.08.37-.29.7-.61.89-.84.5-2.76-.11-3.66-.34-1.55-.37-4.42-1.22-5.93-.65-.63.24-1.09.82-1.76.95-.15.03-.3.03-.43-.07a.5.5 0 0 1-.16-.33c-.1-.77.62-1.77 1.07-2.33a3.64 3.64 0 0 1 2.53-1.49Zm7.37 15.01c.04 0 .1 0 .14.02.13.04.15.06.22.18.03.55-.47 1.16-.6 1.7-.07.3 0 .64.16.89.14.2.34.33.56.43.57.26 1.25.27 1.84.52.85.37 1.48.95 2.43 1.11.45.08.98.06 1.42-.05.76-.2 1.49-.66 2.2-.97.64-.28 1.37-.44 1.92-.85 1.19-.88-.3-1.88-.17-2.83.05-.06.05-.11.14-.13.2-.04.44.07.6.2.59.42.94 1.3 1.04 1.98.04.32.03.65-.03.97a2.34 2.34 0 0 1-1.05 1.5c-.63.41-1.35.58-2.04.88-1.6.71-2.49 1.74-4.47 1.3-.9-.19-1.6-.77-2.41-1.16-.73-.34-1.53-.6-2.2-1.05a2.9 2.9 0 0 1-.84-.86c-.37-.6-.4-1.31-.23-1.97.2-.81.65-1.39 1.37-1.81Zm1.38 10.24c1.17-.14 2.4.33 3.57.4.79.05 1.54-.14 2.31-.27 1.33-.22 4.35-.17 5.46.66.2.15.38.38.4.64a.5.5 0 0 1-.12.38c-.5.57-1.73.1-2.37.03a7.83 7.83 0 0 0-1.48.01c-1.19.15-2.35.4-3.55.44-.77.02-1.55-.01-2.32-.1-1.15-.15-2.41-.5-3.57-.34-.56.08-1.72.46-2.2.12a.45.45 0 0 1-.2-.35c-.02-.25.08-.56.24-.74.63-.68 2.94-.82 3.83-.88Zm-5.56-20.22c.3-.02.6-.02.91-.02 1.18.01 2.62.03 3.49.96.27.29.62.88.57 1.3-.02.11-.06.22-.16.29-.4.25-1.78-.41-2.3-.52-.17.51-.34 1-.75 1.37-.47.42-1.03.52-1.64.5a2.44 2.44 0 0 1-.88-.35c-.52-.35-.71-.86-.82-1.45-.64.07-2.77.61-3.23.32a.6.6 0 0 1-.27-.38.54.54 0 0 1 .16-.45c1.03-1.23 3.44-1.45 4.92-1.57Zm17.06 0c.43-.02.86-.02 1.29 0 1.48.04 4.15.28 5.18 1.43.18.2.3.44.29.71-.04.1-.07.16-.15.21-.52.36-2.64-.18-3.28-.31-.09.46-.19.82-.5 1.18a2 2 0 0 1-2.5.39c-.62-.36-.88-.9-1.06-1.56-.53.05-1.9.7-2.25.5-.12-.08-.17-.22-.19-.36-.04-.41.11-.8.38-1.12.7-.85 1.77-.97 2.79-1.07ZM46.2 64.9c.67-.02 1.34.27 2 .34 1.26.14 2.6.18 3.85-.01.43-.07.84-.22 1.27-.28.2-.03.45-.05.61.1.12.1.16.24.14.39-.03.4-.28.73-.57.99-.5.34-1.14.49-1.74.57-1.5.2-4.22.28-5.46-.72-.2-.15-.4-.37-.4-.63-.01-.28.12-.56.3-.76Zm2.7-29.57c.06.05.07.05.12.12.32.45.42 2.83.3 3.38a.83.83 0 0 1-.42.62c-.07-.03-.17-.06-.23-.1a.72.72 0 0 1-.2-.43c-.2-.88-.08-2.84.43-3.59Z"/></svg>