<svg xmlns="http://www.w3.org/2000/svg" viewBox="130.94 133.96 238.4 252.77"><path fill="#00c9a7" d="m194.07 134.1 104.61-.01 28.74-.02c5.67 0 11.74-.44 17.34.48q1.14.18 2.26.44 1.13.27 2.23.62 1.1.36 2.17.8 1.07.44 2.1.96t2.02 1.12q.99.6 1.92 1.28.94.68 1.82 1.43.88.75 1.7 1.57.75.74 1.44 1.54t1.3 1.65q.63.85 1.18 1.75.56.9 1.04 1.84.48.94.9 1.9.4.98.73 1.98.33 1 .58 2.03.25 1.03.42 2.07c1.17 6.92.66 14.34.66 21.35v104.79c.01 12.87.15 25.75 0 38.62-.1 9.56-1.85 17.74-8.92 24.62a28.84 28.84 0 0 1-14.37 7.76c-5.07 1.07-10.31.86-15.47.86l-15.75-.01h-95c-3.62 0-7.6-.32-11.17.16l-.32.25c-3.1 2.5-5.84 5.63-8.67 8.45q-7.1 7.04-14.29 14c-2.42 2.38-5 5.51-7.92 7.24a7.83 7.83 0 0 1-4.98 1.05 6.73 6.73 0 0 1-4.8-2.67c-2.44-3.43-1.48-16.62-1.46-21.2 0-1.72.23-3.95-.38-5.56-.37-.98-.97-1.53-2.03-1.69-2.16-.33-4.44-.12-6.62-.39-8-1-14.94-4.76-19.98-11.09q-.55-.7-1.06-1.43-.5-.73-.95-1.5-.46-.76-.86-1.56-.4-.8-.75-1.61-.35-.82-.65-1.66-.3-.84-.53-1.7-.24-.86-.42-1.73-.19-.87-.3-1.75c-.99-7.44-.54-15.32-.54-22.81l.03-37.95.01-62.47.02-19.13c0-3.96-.15-7.96 0-11.92l-.07-5.76c-.08-10.7 0-20.31 8.05-28.4 3.48-3.5 7.6-5.93 12.35-7.26 7.17-2.01 15-1.38 22.38-1.37l20.26.04Zm12.25 37.7-.26.1c-2.33.86-4.83.72-7.2 1.34q-.74.2-1.46.44t-1.44.51q-.7.28-1.4.6-.7.3-1.37.66-.68.35-1.34.73-.65.39-1.29.81-.63.42-1.25.88-.6.45-1.2.94-.58.48-1.14 1-.56.52-1.1 1.06-.52.55-1.03 1.12-.5.57-.97 1.17t-.9 1.23q-.44.62-.85 1.27-.4.65-.77 1.31-.37.67-.7 1.36c-2.04 4.22-2.41 8.29-3.1 12.84-7.6 6.07-12.81 11.43-13.89 21.58-.43 4.04.5 7.47 1.63 11.3-3.53 4.93-5.44 10.46-4.48 16.56.8 5.06 3.54 9.4 7.7 12.37 2.76 1.96 5.74 2.95 9.03 3.56l36.94.01c4.72 0 13.32.62 17.6-.38 3.28-.77 6.7-2.75 9.1-5.12 5.7-5.62 5.84-11 5.84-18.51l-.02-48.72c0-5.35.6-19.07-.46-23.68-.56-2.5-2.34-5.22-4.16-7.01a17.3 17.3 0 0 0-11.92-4.9q-.9.03-1.8.1c-10.43 1.6-15.6 5.67-22.34 13.47Zm70.5 108.27c-5.83.95-10.4 4.01-13.84 8.8-6.2 8.63-5.32 18.93-5.28 28.98.02 3.73-.28 7.63.36 11.32.59 3.37 2.1 6.48 4.98 8.48 4.84 3.37 15.8 3.45 21.44 2.29 1.32-.28 2.62-.78 3.82-1.37 3.2-2.1 5.1-4.42 5.86-8.26.91-4.56.97-14.05-1.68-17.94a10.28 10.28 0 0 0-7.17-4.23c-2.27-.34-4.62-.12-6.9-.38a15.89 15.89 0 0 1-1.89-4.26c1.53-4.92 3.46-8.3 8.2-10.8 2.55-1.34 5.29-2.33 6.22-5.33a5.18 5.18 0 0 0-.59-4.61 5.4 5.4 0 0 0-3.54-2.6c-3.04-.72-6.85-.21-9.99-.1Zm48.32-14.19c5.61-2.14 10.2-5.71 12.68-11.3 1.97-4.44 1.96-10.3.2-14.81a19.46 19.46 0 0 0-3.16-5.4c2.25-7.6 2.7-14.58-1.2-21.79-2.62-4.82-6.65-8.1-10.92-11.37-1.74-10.08-3.6-17.49-12.49-23.76-5.81-4.1-9.31-4.12-15.9-5.18-2.14-2.18-4.16-4.56-6.41-6.6-4.74-4.3-11.34-7.35-17.81-7.43-.62 0-1.25.04-1.87.08-5.06.89-9.23 2.56-12.26 6.94a15.63 15.63 0 0 0-2.78 7.42c-.48 4.23-.19 8.76-.19 13.03v50.02c-.01 4.8-.5 10.12.38 14.82.95 5.13 3.87 9.95 8.24 12.85q.9.6 1.86 1.1.96.49 1.97.86 1.01.38 2.06.64 1.05.25 2.13.39c5.47.73 14.42.13 20.25.14l20.64.05c4.4.01 9.29.43 13.62-.48q.49-.1.96-.22Zm-102.08 14.2c-6.13 1.4-10.97 5.28-14.3 10.6a29.67 29.67 0 0 0-3.93 10.38c-.63 3.53-.7 25.79.07 29.1.77 3.28 2.68 6.2 5.6 7.95 1.59.95 3.38 1.6 5.19 1.95 3.82.74 12.6.87 16.3-.16a19.1 19.1 0 0 0 3.02-1.18c2.94-1.83 5.26-4.04 6.07-7.55.8-3.4.84-11.43.11-14.77q-.23-1.04-.65-2.02-.42-.98-1.01-1.87c-1.74-2.6-4.12-3.77-7.13-4.3-2.32-.4-6.5.33-8.05-1.8-.88-1.2-.65-3.37-.37-4.75.7-3.48 3.43-6.3 6.36-8.14 2.17-1.38 6.74-3 7.3-5.78.33-1.68.25-4.08-.74-5.54-.89-1.32-2.36-1.89-3.88-2.12-3.13-.48-6.8-.16-9.96 0Z"/><path fill="#00c9a7" d="m131.1 176.85-.07-5.76c-.08-10.7 0-20.31 8.05-28.4 3.48-3.5 7.6-5.93 12.35-7.26 7.17-2.01 15-1.38 22.38-1.37l20.26.04c.05.04.1.09.16.12 1.05.55 29.28.06 33.3.21-8.1.18-16.2.07-24.3.06-3.7 0-7.7-.3-11.38.14 3.75.4 7.72.1 11.5.13 3.1.03 6.19.3 9.28.39 2.8.08 5.6-.01 8.4.07 2.19.06 3.83.8 5.62.87 3.21.14 9.42-.37 12.2.52-.59.86-2.1.8-2.54 1.65l.5.33c-.06.6-.06.56-.52.9-1.1.87-2.36.8-3.69.87-1.45.06-17.3 5.23-18.1 6l-1.23.07.12.37a21 21 0 0 1 1.52.25c-.98 1.3-3.83 1.76-5.37 2.36-1.65.64-3.55.74-5.3.96-2.48.3-4.89.8-7.34 1.16-3.82.56-7.69.96-11.47 1.73-4.02.81-11.9 3.2-15.79 3.01l-.15.34-.3-.19.08-.06-.26.3c-.05.08.13.52.16.6l-.15-.23-.19.2c-.83.01-1.96-.14-2.74.12.24.5.83 1.27.7 1.77-1.34.58-2.75.78-4.14 1.19-1.72.5-8.58 1.57-10.34 1.48l-.07-.22c.58-.49 1.13-.76 1.33-1.5-1.38-.07-2.74.33-4.1.49l-.43.66-.23-.12-.47.33-.25-.53-.5.5-.4-.14c-.05.07-.09.15-.15.21-.58.6-2.1.8-2.92 1.03l-.01.32 1.12.85-.02.3a38.74 38.74 0 0 1-9.16 3.73l-.07-.47a8.2 8.2 0 0 0-.34-1.36l-1.92.01.29-.12-.7.11a2.68 2.68 0 0 1-.76-1.49c-.45.2-.51.36-.99.2.01 1.48.2 13.48-.1 14.06q-.2-.9-.36-1.8Zm98.3-9.54c.9-.06 1.72 0 2.6.17 1.9.34 3.48 1.07 4.56 2.74a8.15 8.15 0 0 1 1.16 3.87c.32 4.7.02 9.6.02 14.34l-.02 28.66.03 20.88c0 4.01.48 8.65-.35 12.59a8.82 8.82 0 0 1-3.8 5.2 12.94 12.94 0 0 1-5.57 1.79c-5.97.68-12.34.12-18.36.12l-17.38.04c-5.3 0-10.79.38-15.98-.85a9.65 9.65 0 0 1-2.4-1.28c-2.22-1.61-3.57-3.54-3.93-6.3-1.05-7.95 5.02-10.74 5.2-14.3.15-2.9-2.15-6.18-2.6-9.14-.88-5.73 2.38-12.5 7.13-15.79 1.72-1.19 5.74-2.41 6.68-4.2.54-1.03.48-2.68.5-3.82.14-4.77.77-8.8 3.67-12.72a19.57 19.57 0 0 1 13.64-7.98c1.8-.22 3.71-.14 5.5-.47 2.97-.55 3.61-2.6 5.18-4.84 3.7-5.28 8.28-7.6 14.52-8.7Zm-30.86 49.85a20.12 20.12 0 0 0-11.23 10.4c-1.64 3.67-2.14 7.69-.63 11.5.71 1.8 1.8 3.81 3.69 4.59 1.21.5 2.54.37 3.73-.15a4.06 4.06 0 0 0 2.3-2.34c.85-2.41-.68-5.68-1.25-8.08.7-2.5 1.65-4.25 3.85-5.8l.28-.15c.64-.33 1.1-.64 1.84-.54 1.89 1.17 3.4 2.98 5.15 4.38 3.13 2.5 8.96 5.68 13.1 4.7a5.72 5.72 0 0 0 3.58-2.8c.52-.87.76-1.73.44-2.71-.5-1.52-2.59-2.48-3.95-3-4.4-1.65-8.75-2.78-10.9-7.52a15.28 15.28 0 0 1-.2-10.74c1.32-3.22 4.23-5.51 7.4-6.78 2.37-.94 6.96-1.82 7.86-4.63.29-.9-.08-1.87-.6-2.62-.77-1.12-1.72-2.32-3.14-2.55a7.4 7.4 0 0 0-2.49.01 22.68 22.68 0 0 0-15.26 9.03c-3.36 4.56-4.32 10.26-3.57 15.8Zm70.56-49.86c6.38-.2 12.46 3.71 16.08 8.73.97 1.35 1.77 3.73 3.32 4.5 1.5.74 3.68.4 5.36.53 3.92.3 8.36 1.66 11.52 4.06a19.19 19.19 0 0 1 7.68 13.93c.2 2.37.16 4.75.5 7.12l.05.33c4.64 2.64 8.83 4.18 11.78 9 2.48 4.07 2.96 9.7 1.4 14.2-.5 1.46-1.43 2.84-1.75 4.34-.53 2.53 2.03 4.65 3.28 6.64 1.61 2.6 2.47 5.97 1.74 8.98-.74 3.03-2.88 5.2-5.42 6.82-.6.22-1.2.4-1.83.53-4.4 1.01-9.14.72-13.63.72h-16.04c-6.56 0-13.5.45-20.03-.2-2.29-.21-4.48-.46-6.46-1.75-1.88-1.23-3.64-3.41-4.06-5.66-.55-2.95-.21-6.56-.21-9.56v-51.03c0-5.6-.29-11.34.1-16.9.06-.84.42-1.57.9-2.24 1.36-1.93 3.51-2.67 5.73-3.08Zm29.9 59.18c1.24.48 2.3.98 3.34 1.85 1.47 1.62 2.3 2.95 2.2 5.23-.14 2.84-2.14 6.65.11 9.07.84.9 2.26 1.27 3.4 1.64 2.66-1.28 4.51-2.84 5.55-5.71 1.38-3.81.73-7.9-1.03-11.46a20.57 20.57 0 0 0-10.9-9.9c.6-6.01-.27-11.56-4.15-16.38a23.98 23.98 0 0 0-16.5-8.73l-.29-.03c-1.66.53-2.74 1.22-3.54 2.82-.5 1-.8 2.1-.38 3.18.55 1.4 2.14 2.28 3.47 2.81 4.93 1.98 9.13 2.5 11.51 8 1.26 2.9 1.23 7.63-.01 10.54-1.32 3.1-4.25 5.33-7.35 6.48-2.33.87-6.56 1.8-7.7 4.22a2.55 2.55 0 0 0-.03 2.15c.44 1.11 1.69 2.77 2.82 3.22 3.04 1.2 7.87-.84 10.58-2.15 3.34-1.62 6.25-4.3 8.9-6.85Z"/></svg>