<svg xmlns="http://www.w3.org/2000/svg" viewBox="0 0 100 100"><path d="M50.09 17.5c.6-.53 1.12-1.15 1.7-1.7a15.16 15.16 0 0 1 7.03-4.03 19.5 19.5 0 0 1 7.02-.27c.21.03.4.13.6.18 1.57.39 3.06.57 4.5 1.42.32.19.6.46.7.83.23 1.01-1.4 1.75-2.04 2.27a8.13 8.13 0 0 0-1.64 1.73l-.04.06h.49c1.19.05 2.69.26 3.82.6.86.26 1.7.66 2.5 1.08a17.1 17.1 0 0 1 4.95 3.86c1.17 1.3 4.47 5.89 4.35 7.51-.04.42-.23.81-.56 1.08-1.2 1-2.5-.18-3.75-.26-.18-.01-.31 0-.45.11 0 .14.04.22.13.34.22.33.52.62.78.92.3.36.57.74.83 1.13 2.45 3.77 3.95 7.68 4.16 12.18.04.73.14 1.6-.03 2.3-.1.44-.43.91-.82 1.13-1.62.9-2.86-1.8-4.2-2.2-.12.01-.16 0-.23.13-.16.32-.03 3.27-.1 3.9-.4 3.82-1.4 7.44-3.91 10.43-.59.7-1.46 1.75-2.44 1.81-.9.05-1.33-.8-1.84-1.38-.25-.27-.53-.51-.8-.75-.48.7-.65 1.65-1.03 2.42a34.37 34.37 0 0 1-3.1 4.92c1.52.7 3 1.6 4.17 2.78.45.44.93.9 1.34 1.38 2.35 2.87 3.98 6.8 3.98 10.54a4.6 4.6 0 0 1-1.33 3.51c-1.16 1.15-2.56 1.28-4.1 1.26H31.36c-1.1 0-3.02.12-4.05-.09a4.35 4.35 0 0 1-2.7-1.84c-.78-1.18-.8-2.25-.74-3.62.04-.74.1-1.5.26-2.23a17.3 17.3 0 0 1 6.38-10.08c.9-.65 1.85-1.04 2.75-1.62l.04-.03q-.45-.57-.86-1.16-.42-.6-.8-1.21-.38-.62-.73-1.25t-.67-1.29c-.32-.68-.54-1.57-.94-2.19-.06-.03-.1-.06-.17-.05-.44.05-1.02.94-1.31 1.27-.34.38-.8.76-1.33.77-.49 0-.9-.42-1.25-.7-.6-.47-1.04-1-1.5-1.6a18.34 18.34 0 0 1-3.43-8.83 33.22 33.22 0 0 1-.18-3.45c0-.23.03-1.46-.03-1.59-.02-.05-.08-.07-.11-.11-.93-.34-2.1 2.24-3.63 2.3-.4.01-.76-.12-1.05-.4-.4-.37-.5-.72-.52-1.26-.07-4.23.63-7.44 2.54-11.23.43-.87.88-1.74 1.42-2.54q.62-.93 1.3-1.8c.16-.18.53-.54.63-.69.07-.11.05-.15.03-.27-.57-.36-2.58.74-3.57.52-.56-.13-.86-.5-1.16-.95-.02-.36-.05-.7.03-1.06.27-1.24 1.7-3.46 2.41-4.53 2.02-3 4.7-5.41 8.06-6.78.72-.29 1.41-.57 2.18-.75.76-.18 1.64-.27 2.42-.33.29-.02.61.01.9-.04l.01-.09a10.2 10.2 0 0 0-1.61-1.77c-.32-.24-.7-.4-1.03-.6-.42-.23-.9-.67-1.03-1.15a1 1 0 0 1 .12-.83c.6-.92 4.23-1.76 5.3-1.95.67-.12 1.35-.13 2-.26l.07-.02c3.27-.07 5.69.16 8.66 1.67 1.13.58 2.2 1.29 3.12 2.17.64.62 1.74 2 2.5 2.31Zm1.41 40.08.06-.01c1.15-.2 1.36-.74 2.24-1.25l.2-.1q.11-.05.23-.08l.23-.04h.23c.4.02.74.25 1.11.38.25.09.5.13.75.22.84.31 1.7.8 2.43 1.31a7.22 7.22 0 0 1 3.03 4.45c.12.7.08 1.42-.36 2.01a1.8 1.8 0 0 1-1.3.7c-.7.1-1.47-.07-2.15-.23-.27-.07-.55-.16-.83-.2-.1 0-.27 0-.34.08a.55.55 0 0 0-.1.26c-.1.64-.08 1.34-.15 2-.2 1.93-.83 3.95-2.1 5.45q-.37.43-.8.8c-.28.25-.94.62-1.1.9l.03.07c.4.06.88-.09 1.27-.17a17.6 17.6 0 0 0 6.8-3.2 21.02 21.02 0 0 0 6.82-9.21c.48-1.21.8-2.47 1.22-3.7l.38-.3c.57-.04 1.14.01 1.7 0a4.13 4.13 0 0 0 3-1.46c1.46-1.65 1.83-4.1 1.7-6.24a5.33 5.33 0 0 0-1.55-3.6 2.75 2.75 0 0 0-2.06-.7c-.67.06-1.3.38-1.96.45a.74.74 0 0 1-.5-.47c-.22-.5-.13-2.19-.16-2.83a27.2 27.2 0 0 0-.57-3.66c-1.45-5.78-5.15-10.58-10.69-12.91a19.36 19.36 0 0 0-3.46-1.04c-.35-.07-.7-.19-1.06-.26-1.25-.24-2.53-.3-3.8-.3-.34 0-.88-.07-1.2.03-1.08.07-2.17.17-3.23.39l-.37.07-.36.09-.36.09-.36.1-.35.1-.36.11-.35.12-.35.13-.34.14q-.18.06-.35.14l-.34.14-.34.16-.33.16-.33.17-.33.17-.32.18-.32.2-.32.19-.31.2-.31.2-.3.22q-.16.1-.3.22l-.3.22-.3.23-.28.24-.28.24-.27.25-.28.25-.26.26-.26.27-.26.26-.25.28a19.9 19.9 0 0 0-4.62 10.46c-.08.58-.38 4.35-.45 4.51-.07.18-.32.22-.5.23-.34.02-.68-.1-1-.17-1.35-.33-2.17-.34-3.18.71-1.2 1.24-1.28 2.95-1.23 4.57.05 1.97.54 3.98 2.04 5.37.7.67 1.8 1.1 2.77 1.07.46-.01 1.33-.26 1.69.1.15.15.25.36.33.55.21.51.3 1.08.47 1.61.24.78.56 1.54.88 2.29 2.21 5.13 5.78 9.06 11.05 11.14.89.34 2.43.91 3.37.96l.18-.01.03-.06c-.19-.41-1.05-.86-1.4-1.22a8.32 8.32 0 0 1-1.72-2.73q-.26-.66-.44-1.34-.19-.68-.3-1.38c-.1-.57-.1-2.47-.2-2.73 0-.04-.12-.13-.15-.16-1.32 0-3.4 1.08-4.5-.03-.4-.4-.52-.95-.5-1.5a6.15 6.15 0 0 1 2-4.25c1.1-1.03 4.15-2.83 5.7-2.8.58.01.9.55 1.34.85 1.3.87 3.04.89 4.52.62Zm-.55 7.14c-.01.85.15 2.32-.02 3.08a1.2 1.2 0 0 1-.34.63c-.19.18-.4.24-.66.29a3.31 3.31 0 0 1-.5-.25l-.04-.06c-.44-.81.06-3.28-.28-3.71-.93-.18-2.38 0-3.39-.07-.08.32-.02.7 0 1.04.12 1.4.41 3.24 1.15 4.45.5.82 1.3 1.6 2.26 1.83.8.19 1.86.04 2.56-.4 1.3-.8 1.93-2.32 2.26-3.76.02-.09.03-.17.03-.26.17-.37.42-2.36.28-2.71-.03-.08-.03-.08-.07-.13-.47-.15-2.7-.06-3.24.03Z"/><path d="M57.87 46.8a2.9 2.9 0 0 1 2.03.49l.11.08.1.1.11.09.1.1.1.1.08.1.08.12.08.12.07.12.07.12.06.13.05.13.05.13.04.14.03.13.02.14a2.86 2.86 0 0 1-2.35 3.3c-.45.02-.85.02-1.28-.14l-.13-.05-.12-.06-.12-.06-.11-.07-.12-.08-.1-.08-.1-.08-.1-.1q-.06-.04-.1-.09l-.1-.1-.08-.1-.08-.1-.07-.12-.07-.11-.07-.12-.05-.12a3.05 3.05 0 0 1-.08-2.26l.05-.12.05-.12.06-.11.07-.11.07-.11.08-.1.08-.1.08-.1.1-.1.09-.08.1-.08.1-.08.1-.07.11-.07.12-.06.11-.06c.15-.07.37-.12.51-.2.06-.04.1-.1.17-.13Zm-16.48.1.13-.01h.41l.14.03q.07 0 .13.02l.14.03.13.04.13.04.12.05.13.06.12.06.12.07.12.07.1.08.11.08.1.1q.06.04.1.09l.1.1.09.1.08.11.08.11.07.12.07.12.06.12.05.13.05.13.04.13.04.13.03.13.02.14.01.13.01.14v.27l-.01.14-.02.13-.03.14-.03.13-.04.13-.04.13-.05.13-.06.12-.06.13-.07.11-.08.12-.08.1-.08.11-.1.1q-.04.06-.09.1l-.1.1-.1.08-.11.09-.12.07-.12.07-.12.07-.12.06-.12.05-.13.05-.13.04-.14.03-.13.03-.14.02-.13.02h-.41l-.13-.02-.14-.01-.13-.03-.13-.03-.13-.04-.13-.05-.12-.05-.12-.05-.12-.07-.12-.06-.11-.08-.11-.08-.1-.08-.1-.1q-.06-.04-.1-.09l-.1-.1-.08-.1-.08-.1-.08-.12-.07-.11-.07-.12-.06-.12-.05-.13-.05-.13-.04-.12-.03-.14-.03-.13-.02-.13-.02-.13v-.41l.01-.13.02-.14q0-.07.02-.13l.03-.13.04-.13.04-.13.05-.13.06-.12.06-.12.07-.12.07-.11.08-.11.08-.1.1-.1q.04-.06.09-.1l.1-.1.1-.09.1-.08.11-.08.12-.07.12-.06.12-.06.12-.06.13-.05.13-.04.13-.03.13-.03.13-.03.14-.01Zm-.17-6.3a4.82 4.82 0 0 1 1.66.07c.46.14.8.46 1.02.89.2.4.25.89.1 1.32-.48 1.33-1.63.98-2.7 1.13-.55.09-1.03.29-1.53.53-.19.1-.38.2-.58.24a1.8 1.8 0 0 1-1.43-.22c-.35-.24-.6-.6-.67-1.03-.08-.46.09-.92.37-1.28.81-1.04 2.53-1.5 3.76-1.65Zm16.34 0c.16-.02.33-.04.5-.04 1.22 0 3.34.48 4.2 1.38.37.39.64.84.62 1.39l-.01.15-.03.15-.05.15-.06.14-.07.14-.09.12-.1.12q-.05.06-.11.1c-.38.34-.84.43-1.33.4-.67.01-1.36-.59-2.03-.74-.62-.14-1.25.02-1.86-.13-.65-.16-.9-.63-1.25-1.16 0-.59.02-1.1.44-1.57.3-.35.77-.56 1.23-.6Z"/></svg>