<svg xmlns="http://www.w3.org/2000/svg" viewBox="0 0 100 100"><path d="M49.2 8.86c.36-.04.73-.02 1.1-.01 5.45.07 10.39 1.74 14.25 5.71 3.5 3.62 5.28 8.65 5.6 13.63.13 2.12 0 4.25-.03 6.38.76-.02 1.46.27 2.06.73a6.04 6.04 0 0 1 2.26 4.14c.44 3-.23 6.51-2.06 8.96a5.81 5.81 0 0 1-3.95 2.5 35.51 35.51 0 0 1-1.16 5.88c-.28.9-.62 1.8-1.02 2.65-.36.76-.97 1.57-1.14 2.38-.1.53-.04 1.19-.01 1.72.52.59 3.16 1.74 4 2.17q1.1.58 2.18 1.2a27.9 27.9 0 0 1 5.57 4.14c2.84 2.79 4.92 6.85 4.95 10.88a6.43 6.43 0 0 1-1.93 4.84 5.8 5.8 0 0 1-3 1.6c-.98.17-2.1.08-3.09.07l-5.2-.03H50.96l-19.7.02-4.88.02c-1 .01-2.08.12-3.06-.04-1.18-.2-2.3-.8-3.16-1.62a6.48 6.48 0 0 1-1.96-4.65c-.02-1.78.4-3.62 1.06-5.26 1.78-4.45 5.43-7.55 9.44-9.95.93-.55 1.9-1.05 2.83-1.57.86-.48 2.85-1.19 3.43-1.8l.04-.04c-.06-.6.06-1.25-.07-1.82-.13-.56-.8-1.52-1.06-2.1q-.43-.9-.77-1.83-.35-.94-.61-1.9-.43-1.48-.67-3c-.1-.65-.1-1.35-.3-1.97a4.8 4.8 0 0 1-3.18-1.6c-2.07-2.11-2.99-5.45-2.94-8.35.03-1.93.5-3.89 1.94-5.27a3.5 3.5 0 0 1 2.55-1.08c-.05-1.9-.17-3.8-.08-5.7.22-4.77 1.7-9.75 4.84-13.44 2.8-3.3 6.85-5.46 11.1-6.23 1.15-.2 2.29-.27 3.45-.36Zm-9.92 43.73c1.03-1.83 2.23-3.43 4.14-4.45.5-.27 1.2-.38 1.63-.7.47-.35.52-1.02 1.13-1.21.85-.26 1.65.54 2.44.76.76.22 1.54.22 2.32.12.3-.06.59-.11.86-.24.72-.31 1.52-1.06 2.32-.5.33.24.47.58.62.94l.03.03c.5.37 1.25.55 1.8.83 1.8.9 3.26 2.59 4.17 4.35.5-.63.83-1.4 1.3-2.06 1.05-1.53 2.33-2.84 3.08-4.58 1.38-3.21 1.6-6.91 1.85-10.36.2-2.7.33-5.37.04-8.08-.51-4.8-2.33-8.92-6.14-12.01-3.34-2.7-7.68-3.71-11.9-3.44-4.52.15-8.33 1.66-11.45 4.99-3.92 4.17-4.87 9.77-4.7 15.3.14 4.37.43 10.86 2.61 14.7.7 1.21 1.66 2.3 2.48 3.43.5.7.9 1.46 1.37 2.18ZM62.5 68.8c.54-1.43.57-2.98.47-4.5-.75.82-1.51 1.65-2.35 2.36l-.26.22-.26.21-.27.2-.27.2-.28.2q-.13.1-.28.18l-.28.19-.28.17-.3.17-.29.17-.3.15-.3.16-.3.14-.3.14-.31.13-.32.13-.3.12-.33.1-.32.11-.32.1-.32.1-.32.08-.33.08-.33.07-.33.07-.33.06-.33.05-.34.04-.33.04-.33.03-.34.02-.34.02-.4.01-.4.01h-.42l-.4-.02-.4-.02-.41-.04-.4-.04-.41-.06-.4-.06-.4-.08-.4-.08-.4-.1-.4-.1-.38-.11-.4-.13-.38-.13-.38-.14-.37-.15-.38-.17-.37-.17-.36-.18-.36-.18-.36-.2-.35-.2-.35-.22-.34-.23-.33-.23-.33-.24-.32-.25-.32-.25-.31-.27-.3-.27c-.35-.32-1.63-1.8-1.83-1.91 0 3.02.1 5.01 2.37 7.28 2.8 2.8 7.02 3.94 10.88 3.92 3.76-.01 7.77-1.34 10.48-4.05a7.05 7.05 0 0 0 1.75-2.65Zm-32.83-31a2.4 2.4 0 0 0-1.13 1.56c-.57 1.98-.03 4.75.98 6.51l.27.44q.14.21.3.41l.34.4.36.36c.2.16.4.34.63.46.02-.03-.66-9.25-.82-9.69a.7.7 0 0 0-.37-.4 1.16 1.16 0 0 0-.56-.05Zm40.25-.05-.45.26c-.24.86-.24 1.85-.31 2.74l-.46 5.35c-.06.62-.06 1.25-.14 1.87.38-.23.71-.46 1.02-.79 1.54-1.66 2.14-4.2 2.06-6.42-.03-.87-.13-2.04-.83-2.66a1.36 1.36 0 0 0-.89-.35ZM53.21 55.58c.3.16.63.48.73.82.13.42.03.88-.19 1.26-.16.27-.38.5-.63.7A4.12 4.12 0 0 1 55 61.1c1.16-.6 1.99-1.27 2.4-2.56a4.7 4.7 0 0 0-.3-3.54 3.98 3.98 0 0 0-2.31-2.05c-1.15-.36-2.7-.2-3.9-.2q-2 0-3.99.02c-1.28.03-2.31.19-3.25 1.17a4.8 4.8 0 0 0-1.2 3.35 4 4 0 0 0 1.25 2.94c.39.36.84.63 1.3.9.45-1.27.7-1.96 1.85-2.78-.44-.33-.7-.68-.78-1.23-.06-.42 0-.8.28-1.14.2-.25.51-.46.83-.49.88-.09 1.82-.02 2.7-.02.96 0 1.97-.06 2.91.02.15.01.27.05.4.1h.03Z"/><path d="M54.53 32.73c.56-.05 1.26.07 1.83.1q1.75.1 3.5.24c.55.05 1.17.06 1.7.2.23.06.45.2.64.34.4.3.73.75.79 1.26.04.36-.08.76-.32 1.04-.29.35-.66.45-1.1.48-1.46-.15-2.92-.32-4.38-.44-.91-.07-1.86-.06-2.75-.2a1.7 1.7 0 0 1-.73-.24c-.35-.21-.6-.55-.68-.95l-.02-.15v-.16l.01-.15.03-.15.04-.15.06-.14.07-.14.09-.12c.32-.44.7-.59 1.22-.67Zm-10.38.06c.31-.07.77-.04 1.1-.05.5 0 .97.13 1.33.5l.1.11.1.13.07.13.06.15.05.14.03.15.01.16v.15c-.02.39-.2.74-.5.99-.21.2-.47.3-.76.36-1.04.23-2.2.16-3.27.25-.56.05-1.8.27-2.28.24-.85.06-1.9.43-2.66-.13-.23-.17-.37-.52-.41-.79-.07-.45.03-.91.31-1.28.26-.33.62-.55 1.01-.68.62-.19 1.34-.2 1.99-.25 1.24-.1 2.49-.14 3.72-.28Zm-2.19 4.24.11-.02h.11l.11-.01h.22l.12.01.11.02.1.02.12.02.1.04.11.03.1.05.1.04.1.06.1.05.1.06.08.07.1.07.07.08q.05.03.08.07l.08.09.07.08.07.1.06.08.06.1.05.1.05.1.05.1.04.1.03.11.03.11.02.1.02.12.01.11v.44l-.02.12-.02.1-.03.12-.03.1-.03.11-.04.1-.05.1-.05.1-.06.1-.06.1-.06.09-.07.08-.08.09-.07.08-.08.08-.09.07-.09.07-.09.06-.1.06-.1.06-.1.04-.1.05-.1.04-.1.03-.11.03-.11.03-.08.01-.07.01-.08.01h-.07l-.08.01h-.22l-.08-.01-.07-.01-.08-.01q-.04 0-.07-.02l-.08-.01-.07-.02-.07-.02-.07-.03-.08-.02-.07-.03-.06-.03-.07-.03-.07-.04-.07-.03-.06-.04-.06-.05-.06-.04-.07-.04-.05-.05-.06-.05-.06-.05-.05-.06-.05-.05-.05-.06-.05-.05-.05-.06-.04-.07-.04-.06-.04-.06-.04-.07-.04-.06-.03-.07-.03-.07-.03-.07-.03-.07-.02-.07-.03-.07-.02-.08-.01-.07-.02-.07-.01-.08-.01-.07-.01-.08v-.45l.02-.08v-.07l.02-.07.02-.08.02-.07.02-.07.03-.07.02-.08.03-.07.03-.06.04-.07.03-.07.04-.06.04-.07.04-.06.05-.06.04-.06.05-.06.05-.06.05-.05.06-.05.05-.06.06-.05.06-.04.06-.05.06-.04.06-.05.07-.03.06-.04.07-.04.07-.03.06-.03.07-.03.08-.03.07-.02.07-.02.07-.02.08-.02.07-.01Zm15.26 0h.08q.03-.02.07-.02h.08l.07-.01h.39l.07.01.08.02.07.01.08.02.07.02q.04 0 .07.02l.08.02.07.03.07.03.07.03.07.03.06.04.07.04.06.04.07.04.06.04.06.05.06.05.06.05.05.05.06.05.05.06.05.06.05.06.04.06.05.06.04.06.04.07.04.07.03.06.03.07.03.07.03.07.03.07.02.08.02.07.02.07.02.08.01.07.02.08v.07l.01.08v.38l-.01.08-.02.07v.08l-.03.07-.01.08-.03.07q0 .04-.02.07l-.03.07q0 .04-.02.07l-.03.07-.04.07-.03.07-.04.07-.04.06-.04.07-.05.06-.04.06-.05.06-.05.06-.05.05-.06.06-.05.05-.06.05-.06.05-.06.04-.06.05-.06.04-.07.04-.06.04-.07.04-.07.03-.07.03-.07.03-.07.03q-.04 0-.07.02l-.08.02-.07.02-.08.02-.07.01-.08.02h-.1l-.12.02h-.22l-.1-.01-.12-.02-.1-.02q-.06 0-.11-.02l-.11-.03-.1-.04-.11-.03-.1-.05-.1-.05-.1-.05-.09-.06-.1-.06-.08-.07-.08-.07-.08-.08-.08-.08-.07-.08-.07-.09-.07-.09-.06-.1-.05-.09-.06-.1-.04-.1-.04-.1-.04-.1-.03-.1-.03-.12-.02-.1-.01-.11-.01-.11-.01-.11v-.22l.02-.12.01-.1.02-.11.03-.11.03-.1.04-.11.04-.1.05-.1.05-.1.06-.1.06-.09.06-.09.07-.09.07-.08.08-.08.08-.07.09-.07.09-.07.09-.06.1-.06.09-.06.1-.05.1-.04.1-.04.1-.03.11-.03.11-.03Z"/></svg>