<svg xmlns="http://www.w3.org/2000/svg" viewBox="0 0 100 100"><path d="M43.62 6.22c1.12-.1 2.38.06 3.48.22 2.98.4 6.4 1.54 8.28 4.02a11.01 11.01 0 0 1 11.36.32c4.99 3.1 9.11 10.76 10.42 16.37.22.97.42 1.96.5 2.96.24 2.78-.14 6.2-1.64 8.6.13.1.24.21.35.33 1.45 1.58 1.7 3.6 1.6 5.66-.17 3.08-1.46 7.93-3.78 10.03a5.83 5.83 0 0 0 1.08 3.05c.36.47.9.9 1.04 1.5.1.42.03.82-.22 1.18-.93 1.38-2.7 1.42-4.15 1.7l-.06.02c-.15.6-.33 1.22-.67 1.75a4.35 4.35 0 0 1-2.68 1.71c.01.65 0 1.3.02 1.94.01.52.13.96.54 1.3.86.74 2.06 1.11 3.08 1.58a23.11 23.11 0 0 1 6.66 4.32c.5.48.95 1.07 1.35 1.64 1.6 2.27 2.4 4.79 2.42 7.56.01 1.88-.5 3.87-1.86 5.23a6.3 6.3 0 0 1-3.15 1.67c-.97.2-1.97.13-2.95.13H27.4c-1.29 0-2.6.04-3.9 0a6.3 6.3 0 0 1-4.31-1.84c-1.36-1.48-1.85-3.63-1.76-5.59.27-6.3 4.1-10.07 9.47-12.68 1.14-.56 3.27-1.35 4.1-2.17.56-.53.36-2.3.35-3.03-.6-.34-1.25-.47-1.81-.91a3.84 3.84 0 0 1-1.41-2.59l-.01-.06c-.16-.1-.46-.05-.65-.07-1.23-.08-2.66-.53-3.47-1.5-1.12-1.33.63-2.37 1.22-3.46.38-.7.57-1.62.64-2.4a9.3 9.3 0 0 1-1.18-1.35c-1.25-1.8-1.93-4.24-2.35-6.37-.39-2-.65-4.53.21-6.44.26-.57.67-1.06 1.02-1.58-1.04-1.87-1.7-3.12-1.91-5.32-.12-1.18-.05-2.35.06-3.53a30.82 30.82 0 0 1 6.73-16.27c.39-.46.77-.95 1.19-1.37.37-.38.8-.72 1.2-1.06a21.6 21.6 0 0 1 8.96-4.66c1.27-.3 2.54-.41 3.83-.54ZM25.53 41.15c-.48.27-.7.6-.86 1.14-.6 2.15.7 7.1 1.76 8.99.47.82 1.03 1.48 1.97 1.74.59.15 1.18.09 1.76 0 .02 0 .04 0 .06.02.31.12.46.26.58.57.23.57.22 1.26.35 1.86.24 1.08.57 2.2.95 3.24 1.38 3.78 3 5.83 5.42 8.96 1.45 1.87 2.83 3.9 5.05 4.9.93.42 1.91.69 2.93.83 1.47.22 2.95.1 4.43.12 1.24 0 2.53.11 3.76-.01 1.06-.1 2.13-.33 3.13-.7 2.23-.85 3.25-2.1 4.65-3.92l1.72-2.18c.3-.39.6-.82.93-1.18.5-.7 1-1.38 1.44-2.11a27.02 27.02 0 0 0 3.45-9.23c.07-.37.14-1.02.6-1.13.23-.06.54-.01.79.01 1.22.1 2-.12 2.77-1.1 1.31-1.73 2.6-6.9 2.29-9.04-.08-.52-.27-1.26-.72-1.57a.8.8 0 0 0-.66-.11c-.44.1-.72.42-.94.8-.69 1.18-.7 2.54-1.86 3.42-.37.06-.7.1-1.02-.16-.4-.32-.48-.95-.52-1.43-.17-1.94-.14-3.91-.44-5.84-.24-1.47-.8-2.86-.96-4.35-.14-1.28.15-2.49.24-3.76a8.1 8.1 0 0 0-2.63-6.69 6.02 6.02 0 0 0-1.92-1.02c.69 1.5.58 3.3 0 4.82a5.1 5.1 0 0 1-2.47 2.86c-.18.08-.37.17-.57.12-.12-.1-.2-.18-.23-.34-.05-.38.16-.92.25-1.3.41-1.88.45-3.94-1.16-5.28-1.36-1.14-3.29-1.22-4.98-1.06-.9.09-1.8.33-2.7.5q-.48.1-.97.17-.5.06-1 .08-.49.02-.99 0t-.99-.08c-.84-.1-1.83-.3-2.64-.58-2.62-.91-4.67-2.28-7.6-2-1.97.39-3.55 1.83-4.65 3.47a11.14 11.14 0 0 0-1.8 4.2c-.33 1.95.3 3.66.2 5.48-.11 1.89-.94 3.61-1.2 5.47-.2 1.4-.2 2.86-.3 4.27-.03.54-.02 1.12-.17 1.64-.11.42-.4.72-.82.82a.85.85 0 0 1-.67-.1c-1.44-.9-.9-3.84-3.04-4.23Zm40 31.45c.49-1.63.22-3.32.29-4.99l-.06.06c-.41.41-.76.9-1.12 1.36-.64.83-1.28 1.68-1.93 2.5-2.81 3.53-6.44 4.8-10.82 4.84-5.1.03-9.62.25-13.55-3.64a19.33 19.33 0 0 1-1.55-1.76c-.42-.53-2.25-3.1-2.62-3.33 0 1.45-.14 3.55.19 4.91.14.58.4 1.15.67 1.68a12.58 12.58 0 0 0 4.73 4.83c3.43 2.04 6.91 2.7 10.86 2.68a19.08 19.08 0 0 0 10.24-3.08 14.7 14.7 0 0 0 2.08-1.78c1-1.01 1.8-2.13 2.33-3.47.1-.25.23-.54.27-.8Z"/><path d="M47.44 57.99c.14.04.32.01.48.04.8.12 1.62.33 2.44.24.68-.07 1.38-.24 2.07-.26 1.4-.04 3.32.3 4.67.68.62.18 1.27.45 1.58 1.04.1.2.16.42.08.63a.97.97 0 0 1-.52.5c-.56.24-1.48-.2-2.07-.29-.3-.05-.63-.03-.94-.02-1.78.06-3.55.26-5.33.23-1.85-.03-3.7-.27-5.55-.24-.83.01-1.67.4-2.28.4a.63.63 0 0 1-.23-.05c-.31-.13-.54-.4-.64-.73-.04-.16.06-.4.15-.53.82-1.23 3.84-1.36 5.24-1.61l.85-.03Zm-7.47-23.3c.81-.07 1.63 0 2.43.06 1.01.09 2.31 0 3.17.61.38.28.64.72.7 1.18.07.39 0 .73-.25 1.03a1.3 1.3 0 0 1-.72.48c-.76.17-1.69-.09-2.47-.07-.42 0-.82.2-1.23.17-.56-.03-1.06-.17-1.62-.1h-.1c-.85.05-1.84.17-2.6.58-.47.24-.94.7-1.46.8-.44.08-.71-.14-1.05-.38-.1-.22-.2-.44-.22-.68-.07-.65.26-1.28.66-1.77 1.25-1.49 2.96-1.75 4.76-1.91Zm17.88 0c.68-.13 2.5 0 3.22.1.32.04.63.13.95.18.13.03.27.01.4.06 1.1.4 2.21 1.2 2.73 2.26.22.43.36.99.18 1.46a.84.84 0 0 1-.47.47c-1.05.45-1.65-.43-2.54-.76l-.05-.01c-.9-.26-1.84-.4-2.77-.45-1-.05-2.04-.02-3.05 0-.52 0-1.08.06-1.59-.01a1.4 1.4 0 0 1-.62-.22c-.29-.2-.44-.5-.48-.84-.06-.49.1-1.02.41-1.39.66-.79 2.7-.74 3.68-.85Zm-2.91 14.38h.05c.36.08.65.3.83.62.38.66.44 1.4.26 2.12-.16.66-.54 1.2-1.13 1.54-.94.55-2.07.63-3.07.99-.46.16-.93.47-1.41.53-.42.06-.92-.02-1.32-.13-.5-.13-.98-.35-1.48-.5-.89-.3-1.95-.5-2.76-.96q-.1-.04-.17-.1l-.15-.14-.14-.15-.1-.16c-.23-.3-.36-.66-.42-1.03-.08-.5-.11-1.45.2-1.87l.1-.17c.05-.09.1-.2.16-.27a.8.8 0 0 1 .53-.28c.52.13.47 1.35.98 1.94.67.79 2.93 1.13 3.9 1.2 1.17.06 3.97-.47 4.59-1.58.25-.47.11-1.23.5-1.57.02 0 .03-.02.05-.03ZM41.1 39.49l.14-.02h.4l.14.02.13.02.13.03.13.03.13.04.12.04.13.05.12.06.12.07.11.06.11.08.11.08.1.08.1.1.1.09.09.1.08.1.08.11.08.11.06.12.07.11.05.13.06.12.04.13.04.12.03.13.03.14.02.13.01.13v.4l-.01.14-.02.13-.03.13-.03.13-.04.13-.05.12-.05.13-.05.12-.07.12-.07.11-.07.11-.08.11-.09.1q-.04.06-.09.1l-.09.1-.1.09-.1.08-.11.08-.11.08-.12.07-.11.06-.13.06-.12.05-.13.04-.12.04-.13.04-.13.02-.14.02-.13.02h-.4l-.14-.02-.13-.02q-.07 0-.13-.02l-.13-.03-.13-.04-.13-.05-.12-.05-.12-.06-.12-.06-.12-.07-.1-.07-.12-.08-.1-.09-.1-.09-.1-.1-.08-.1-.09-.1-.08-.1-.07-.12-.07-.11-.07-.12-.05-.12-.06-.13-.04-.12-.04-.13-.03-.13-.03-.13-.02-.14-.01-.13V42l.01-.14.02-.13.03-.13.03-.13.04-.13.05-.13.05-.12.06-.12.06-.12.07-.12.07-.1.08-.11q.04-.06.09-.1.04-.06.09-.1l.1-.1.1-.1.1-.08.1-.08.12-.07.11-.07.12-.06.12-.06.13-.05.12-.05.13-.04.13-.03.13-.02.14-.02Zm17.5-.01h.14l.13.02.13.02.13.02.13.04.12.04.13.04.12.05.12.06.11.06.12.07.1.07.11.08.1.08q.06.04.1.09l.1.1.09.09.08.1.08.1.07.11.07.12.07.11.05.12.06.12.04.13.04.12.04.13.02.13.03.13.01.13.01.13v.27l-.01.13-.02.13-.02.13-.03.13-.04.12-.04.13-.05.12-.05.12-.06.12-.06.12-.07.1-.08.12-.08.1-.09.1-.09.1-.1.09-.1.08q-.04.05-.1.09l-.1.07-.11.07-.12.07-.11.06-.12.06-.13.05-.12.04-.13.03-.13.04-.13.02-.13.02-.13.01h-.4l-.08-.01-.1-.01-.08-.02q-.05 0-.09-.02l-.09-.02-.09-.02-.08-.03-.09-.03-.08-.03-.09-.04-.08-.03-.08-.04-.08-.05-.08-.04-.07-.05-.08-.05-.07-.06-.07-.05-.07-.06-.07-.06-.07-.06-.06-.07-.06-.06-.06-.07-.06-.07-.05-.08-.05-.07-.05-.08-.05-.08-.04-.07-.04-.09-.04-.08-.04-.08-.03-.08-.03-.09-.03-.09-.03-.08-.02-.1-.02-.08-.01-.09-.01-.09-.01-.09-.01-.09v-.45l.02-.1.01-.08.02-.1.02-.08.02-.09.03-.08.03-.09.03-.08.03-.09.04-.08.04-.08.04-.08.05-.08.05-.08.05-.07.05-.08.05-.07.06-.07.06-.07.06-.06.07-.07.06-.06.07-.06.07-.06.08-.05.07-.05.07-.05.08-.05.08-.05.08-.04.08-.04.09-.04.08-.03.08-.03.09-.03.09-.02.09-.03.08-.02.1-.01.08-.02h.1l.08-.02h.28ZM46.25 63.2c1.29.02 2.57.23 3.87.21.58 0 1.16-.02 1.73-.06.78-.07 1.56-.19 2.34-.15.08.08.16.16.22.25.1.14.14.36.1.53-.12.43-.66.67-1.02.86l-.07.03c-1.68.54-5.64.71-7.25-.13-.24-.13-.57-.33-.63-.62a.86.86 0 0 1 .14-.62c.13-.22.33-.25.57-.3Z"/><path d="m46.59 58.02-.09-.09c.09-.1.25-.08.37-.09.21 0 .4 0 .57.15l-.85.03Z"/></svg>