<svg xmlns="http://www.w3.org/2000/svg" viewBox="0 0 500 15"><path d="M8.8 6.44h482.26a.8.8 0 0 1 .15.37c.07.46.15 1.28-.14 1.68-.65.17-3 .03-3.84.03H8.79V6.43Z"/><path d="M0 7.13C.4 6.63 8.21 1 9.18.4c.23-.15.5-.25.78-.28.22-.03.37 0 .55.13.63.73.36 2.96.35 3.92-.47 0-1.63.17-1.95-.14-.16-.15-.17-.48-.18-.7-.44.1-5.21 3.64-5.89 4.18 2.04 1.32 3.92 2.87 5.9 4.25.06-.3.06-.58.05-.89h2.07c0 .9.3 3.1-.37 3.79a.72.72 0 0 1-.54.23c-.25 0-.44-.08-.64-.2-1.64-1-3.2-2.3-4.76-3.42C3.4 10.43 1.42 9.23.5 8.31.3 8.1.13 7.9 0 7.67v-.54Zm489.05-2.97c.43-.6-.13-2.55.2-3.42.12-.32.3-.47.6-.6.38 0 .8.19 1.12.38 1.4.8 2.86 2.05 4.2 3.02 1.43 1.03 3.03 2 4.35 3.15.21.18.3.28.37.54.04.17.04.27 0 .44a.4.4 0 0 1-.05.22c-.1.22-.35.43-.55.58-.86.69-8.35 6.15-8.79 6.3-.26.1-.59.08-.84-.05-1.05-.51-.21-2.9-.53-3.86h2.02a.4.4 0 0 1 .05.08c.09.2.03.66-.04.86.68-.37 5.74-4.01 5.85-4.3l-.04-.1c-.13-.26-5.4-4-5.86-4.17.05.09.1.17.13.26.07.24-.02.46-.13.67h-2.06Z"/></svg>